<svg id="OBJECT" xmlns="http://www.w3.org/2000/svg" xmlns:xlink="http://www.w3.org/1999/xlink" viewBox="0 0 32 32"><defs><style>.cls-1{fill:url(#linear-gradient);}.cls-2{fill:url(#linear-gradient-2);}.cls-3{fill:url(#linear-gradient-3);}.cls-4{fill:url(#linear-gradient-4);}.cls-5{fill:url(#linear-gradient-5);}.cls-6{fill:url(#linear-gradient-6);}</style><linearGradient id="linear-gradient" x1="-0.13" y1="8" x2="31.49" y2="8" gradientUnits="userSpaceOnUse"><stop offset="0" stop-color="#7738c8"/><stop offset="1" stop-color="#461d93"/></linearGradient><linearGradient id="linear-gradient-2" x1="-0.13" y1="22" x2="31.49" y2="22" xlink:href="#linear-gradient"/><linearGradient id="linear-gradient-3" x1="-0.13" y1="26" x2="31.49" y2="26" xlink:href="#linear-gradient"/><linearGradient id="linear-gradient-4" x1="-0.13" y1="11" x2="31.49" y2="11" xlink:href="#linear-gradient"/><linearGradient id="linear-gradient-5" x1="-0.13" x2="31.49" xlink:href="#linear-gradient"/><linearGradient id="linear-gradient-6" x1="-0.13" y1="24" x2="31.49" y2="24" xlink:href="#linear-gradient"/></defs><path class="cls-1" d="M16,15h8a3,3,0,0,0,3-3V4a3,3,0,0,0-3-3H16a3,3,0,0,0-3,3v8A3,3,0,0,0,16,15ZM15,4a1,1,0,0,1,1-1h8a1,1,0,0,1,1,1v8a1,1,0,0,1-1,1H16a1,1,0,0,1-1-1Z"/><rect class="cls-2" x="20.5" y="20.75" width="2" height="2.5"/><rect class="cls-3" x="20.5" y="24.75" width="2" height="2.5"/><path class="cls-4" d="M5.5,10a1,1,0,0,1,1-1H11V7H6.5a3,3,0,0,0-3,3v5h2Z"/><path class="cls-5" d="M18,9h1.79L18,11.09l1.51,1.32,3.29-3.75A1,1,0,0,0,22,7H20.08L21.8,4.84,20.23,3.59l-3,3.79a1,1,0,0,0-.12,1A1,1,0,0,0,18,9Z"/><path class="cls-6" d="M30,20H27V18a1,1,0,0,0-1-1H2a1,1,0,0,0-1,1V30a1,1,0,0,0,1,1H26a1,1,0,0,0,1-1V28h3a1,1,0,0,0,1-1V21A1,1,0,0,0,30,20ZM11,19V29H8V19ZM3,19H6V29H3ZM25,29H13V19H25Zm4-3H27V22h2Z"/></svg>