<?xml version="1.0" encoding="UTF-8"?>
<svg version="1.1" xmlns="http://www.w3.org/2000/svg" width="2038" height="1814">
<path d="M0 0 C1.52598392 -0.00600057 3.05196483 -0.01280956 4.57794189 -0.02035522 C8.68336965 -0.03786154 12.78871381 -0.04270388 16.89417529 -0.0439868 C19.46781496 -0.0454171 22.04143395 -0.04970304 24.61506844 -0.05498123 C33.6179042 -0.0734267 42.62068112 -0.08165826 51.62353516 -0.08007812 C59.97775925 -0.07887642 68.33172515 -0.0999986 76.68588394 -0.13156545 C83.89311148 -0.15781542 91.10025508 -0.16844187 98.30752999 -0.16716731 C102.59697821 -0.16666047 106.88619622 -0.17218862 111.17559624 -0.19352341 C115.21171014 -0.21305531 119.24737756 -0.21292965 123.2835083 -0.19849014 C124.75313542 -0.19641972 126.22279165 -0.20099574 127.69236946 -0.21321106 C146.60020656 -0.36003399 161.94604798 5.32152765 175.72485352 18.42333984 C189.94213247 34.04532001 193.17982914 51.03050658 192.51342773 71.54638672 C191.5909806 85.67214386 183.21668684 99.7194049 173.15844727 109.38037109 C158.66864604 121.73583171 142.74126635 125.77406072 124.04199219 125.65942383 C122.66390688 125.66189932 121.28582348 125.66574525 119.90774536 125.6708374 C116.96897731 125.67909806 114.03040357 125.67843493 111.09163475 125.67065239 C106.43822322 125.65895731 101.78505587 125.67132233 97.13166809 125.68727112 C85.58380548 125.72326609 74.03595083 125.72969333 62.48803711 125.72717285 C53.48922784 125.72545924 44.49062138 125.73262402 35.49186879 125.76715142 C30.87175037 125.78388372 26.25212873 125.78220642 21.63201272 125.76632869 C18.75587647 125.76051344 15.87997378 125.77130291 13.00387955 125.78657532 C11.04698601 125.79204759 9.09006802 125.77773222 7.13322449 125.76271057 C0.06735609 125.8201277 -4.69895172 126.39098655 -10.66577148 130.29052734 C-14.51959854 135.0336991 -15.79024056 138.82318336 -15.79186065 144.82136767 C-15.79453037 145.73293971 -15.79720008 146.64451176 -15.79995069 147.58370719 C-15.79671898 149.08435531 -15.79671898 149.08435531 -15.79342198 150.61531955 C-15.79589815 152.21956091 -15.79589815 152.21956091 -15.79842434 153.85621119 C-15.80277415 157.47755782 -15.79994027 161.09886426 -15.79719925 164.72021198 C-15.79884771 167.33888242 -15.80093344 169.95755261 -15.80341935 172.57622239 C-15.80814116 178.30715394 -15.80911546 184.03807686 -15.80769101 189.76901004 C-15.80557421 198.3484886 -15.80917707 206.92795818 -15.81390578 215.50743535 C-15.82178906 230.12729821 -15.82486832 244.74715864 -15.82535172 259.36702347 C-15.82585362 274.18958976 -15.8284956 289.01215331 -15.83375931 303.8347187 C-15.83408944 304.76977936 -15.83441957 305.70484001 -15.83475971 306.66823584 C-15.83610967 310.47639096 -15.83747233 314.28454608 -15.83885182 318.0927012 C-15.85516643 363.210064 -15.86154179 408.32742628 -15.86629969 453.44479154 C-15.86868147 475.90287318 -15.87238463 498.36095452 -15.87633679 520.81903593 C-15.88900174 592.82675635 -15.89978605 664.83447677 -15.90317724 736.84219829 C-15.90333948 740.28474267 -15.90350504 743.72728706 -15.90367163 747.16983144 C-15.90400543 754.07411104 -15.90433591 760.97839063 -15.90466619 767.88267022 C-15.90505309 775.96620708 -15.9054427 784.04974395 -15.90583725 792.13328081 C-15.90594967 794.4468699 -15.90606109 796.76045899 -15.9061715 799.07404808 C-15.90972204 873.40136025 -15.9248047 947.72866276 -15.94810925 1022.05597124 C-15.96484521 1075.45512082 -15.98032351 1128.85426859 -15.98484421 1182.25342083 C-15.98493769 1183.35101983 -15.98503118 1184.44861883 -15.9851275 1185.5794784 C-15.98714631 1209.67158983 -15.98830255 1233.76370123 -15.98865608 1257.85581274 C-15.98879226 1266.47589236 -15.98900126 1275.09597198 -15.98924934 1283.7160516 C-15.9893109 1285.86059772 -15.98936922 1288.00514384 -15.98942429 1290.14968996 C-15.99034498 1324.3549566 -16.00032375 1358.56021316 -16.01488177 1392.76547648 C-16.02948145 1427.20632932 -16.03454971 1461.64716979 -16.02646223 1496.08802518 C-16.02534678 1500.8427277 -16.02433614 1505.59743024 -16.02338791 1510.3521328 C-16.02319794 1511.28422184 -16.02300797 1512.21631087 -16.02281225 1513.17664504 C-16.02007405 1527.96077542 -16.0274351 1542.744883 -16.03896128 1557.52900842 C-16.05007476 1572.05141346 -16.05056081 1586.57378612 -16.03959109 1601.09619164 C-16.03347509 1609.61981639 -16.03564114 1618.14334368 -16.04984306 1626.66695933 C-16.05945465 1632.98090178 -16.05356074 1639.29473774 -16.04143274 1645.60867385 C-16.03898269 1648.15751707 -16.04163856 1650.70637119 -16.04982921 1653.25520242 C-16.0601782 1656.70021016 -16.05221852 1660.14469921 -16.03951764 1663.58968765 C-16.04692614 1664.5829475 -16.05433463 1665.57620735 -16.06196763 1666.59956598 C-16.0065592 1673.7066774 -14.99695814 1678.52991157 -10.29077148 1684.10302734 C-4.6434424 1688.80913491 0.63828626 1688.57827386 7.68980408 1688.55122375 C8.74339932 1688.5550493 9.79699455 1688.55887485 10.88251692 1688.56281632 C14.41847326 1688.57314804 17.95426727 1688.5691538 21.49023438 1688.56518555 C24.02307791 1688.5695319 26.55592012 1688.57471479 29.08876038 1688.58067322 C35.25770583 1688.59268906 41.42659129 1688.59521367 47.59554618 1688.59287295 C52.60968284 1688.59108993 57.62380628 1688.59283911 62.63794136 1688.5970974 C63.35157477 1688.59769259 64.06520819 1688.59828777 64.80046685 1688.598901 C66.2502108 1688.60011275 67.69995474 1688.60132688 69.14969868 1688.60254338 C82.74517614 1688.61341963 96.34062879 1688.61125597 109.93610764 1688.60515853 C122.37336454 1688.59998884 134.81054314 1688.61124602 147.24778455 1688.63025675 C160.01937938 1688.64962886 172.79093716 1688.65789228 185.56254679 1688.6541335 C192.73243287 1688.65222056 199.90225229 1688.65471808 207.07212639 1688.66884804 C213.81330127 1688.68199874 220.55429382 1688.67951037 227.29547691 1688.66643715 C229.77146202 1688.66406539 232.24745808 1688.66682738 234.72343063 1688.67506027 C238.09969396 1688.68547841 241.4754254 1688.67746629 244.85166931 1688.66474915 C245.83464632 1688.67212343 246.81762334 1688.67949772 247.83038753 1688.68709546 C253.82163035 1688.63952257 258.36156359 1688.00193669 262.97875977 1683.79052734 C266.21050326 1679.64006078 267.45902984 1676.86915364 267.46011236 1671.66142831 C267.46273703 1670.70232951 267.4653617 1669.74323071 267.46806592 1668.75506831 C267.46586189 1667.69625852 267.46365786 1666.63744873 267.46138704 1665.54655379 C267.46298686 1664.4194865 267.46458668 1663.29241921 267.46623498 1662.13119837 C267.47042236 1658.30756972 267.4674142 1654.48397924 267.46451378 1650.66034985 C267.46549329 1647.89829584 267.46798275 1645.13624367 267.47040296 1642.3741906 C267.47489727 1636.3256462 267.47565221 1630.27711006 267.47403018 1624.22856434 C267.4716259 1615.17348734 267.47499866 1606.11841887 267.47954711 1597.06334302 C267.4871367 1581.6332815 267.49003362 1566.20322226 267.49043465 1550.77315903 C267.49086802 1535.12776257 267.49350071 1519.48236876 267.4988575 1503.83697319 C267.49919469 1502.85018968 267.49953188 1501.86340617 267.49987929 1500.84672013 C267.50161184 1495.81540079 267.50338665 1490.78408148 267.50518144 1485.75276216 C267.50884959 1475.43543451 267.51222441 1465.11810677 267.51550126 1454.80077899 C267.51583169 1453.76151569 267.51616212 1452.72225239 267.51650256 1451.65149626 C267.52369548 1428.80112617 267.52802166 1405.9507557 267.53221959 1383.1003849 C267.5420056 1329.93331421 267.56053936 1276.76624958 267.58235156 1223.59918258 C267.59090306 1202.74159553 267.59917373 1181.88400837 267.60746865 1161.02642121 C267.60886683 1157.51243443 267.61026765 1153.99844765 267.61166879 1150.48446087 C267.63320026 1096.44241332 267.65263701 1042.40036511 267.67088164 988.35831636 C267.67211945 984.69367106 267.67336102 981.02902575 267.67460302 977.36438045 C267.69370613 920.92539571 267.71066326 864.48641098 267.72296143 808.04742432 C267.72322642 806.83365828 267.72349141 805.61989224 267.72376443 804.36934542 C267.72670126 790.90469056 267.72959403 777.44003569 267.73246904 763.97538082 C267.73285647 762.16099126 267.73285647 762.16099126 267.73325172 760.30994736 C267.73455444 754.20639984 267.73585445 748.10285231 267.73715128 741.99930479 C267.74889092 686.8564036 267.76272798 631.71350486 267.78600502 576.57060719 C267.78649323 575.41174552 267.78698144 574.25288385 267.78748444 573.05890517 C267.79774255 548.76246263 267.80862072 524.46602043 267.82031165 500.16957855 C267.82578364 488.79200051 267.83111079 477.4144224 267.8363533 466.03684425 C267.83713119 464.35652892 267.83713119 464.35652892 267.83792479 462.64226782 C267.85456371 426.5408162 267.86123346 390.43937107 267.86252813 354.33791589 C267.86386033 317.97812396 267.87426279 281.61834741 267.89747363 245.25856249 C267.90067655 240.23553944 267.90377031 235.21251634 267.90679741 230.18949318 C267.907693 228.71249625 267.907693 228.71249625 267.90860668 227.205661 C267.91778566 211.60612938 267.91687384 196.00661522 267.91175673 180.40708242 C267.90693102 165.07255005 267.91273242 149.73805245 267.92987679 134.40352857 C267.93960767 125.41052866 267.94112167 116.41761774 267.93051456 107.42461831 C267.9242856 101.45161779 267.92891797 95.47868934 267.94236818 89.50570088 C267.94968776 86.11994512 267.95074346 82.73451441 267.94173652 79.34874107 C267.86317844 47.41535583 267.86317844 47.41535583 274.95922852 34.04052734 C275.30550293 33.37214844 275.65177734 32.70376953 276.00854492 32.01513672 C283.25990343 18.58309008 295.12168419 8.63541581 309.33422852 3.29052734 C310.11540039 2.97083984 310.89657227 2.65115234 311.70141602 2.32177734 C326.86906804 -2.91178949 344.76259626 -0.60576875 359.20532227 5.50537109 C376.78252869 14.10698275 385.91100343 29.65482307 393.95922852 46.66552734 C394.66444695 48.13936224 395.37026783 49.61290901 396.07666016 51.08618164 C401.45285703 62.32535932 406.70466639 73.62235182 411.92407227 84.93505859 C415.84179384 93.41162576 419.8387775 101.85039137 423.83422852 110.29052734 C428.85403142 120.89712228 433.8471132 131.51432374 438.77172852 142.16552734 C443.89265206 153.23919957 449.10187676 164.26918488 454.33422852 175.29052734 C459.56658119 186.31187174 464.77565372 197.34192372 469.89672852 208.41552734 C474.76396188 218.9392335 479.6905829 229.43346508 484.64672852 239.91552734 C485.00481598 240.67295227 485.36290344 241.4303772 485.73184204 242.21075439 C487.18292804 245.27994379 488.63413712 248.34907494 490.08552551 251.41812134 C493.92553886 259.53890674 497.75777763 267.66334297 501.58422852 275.79052734 C501.91735046 276.49802124 502.25047241 277.20551514 502.59368896 277.93444824 C507.01653418 287.3309436 511.40828999 296.7412629 515.77172852 306.16552734 C520.68274565 316.77148702 525.65122599 327.34916088 530.64672852 337.91552734 C531.0046347 338.67258972 531.36254089 339.4296521 531.73129272 340.20965576 C533.18256703 343.27923406 534.63398112 346.34874622 536.08555603 349.41818237 C539.92555489 357.53894948 543.75778731 365.66336354 547.58422852 373.79052734 C547.91735046 374.49802124 548.25047241 375.20551514 548.59368896 375.93444824 C553.01653418 385.3309436 557.40828999 394.7412629 561.77172852 404.16552734 C566.68274533 414.77148633 571.65116994 425.34918788 576.64672852 435.91552734 C577.00496704 436.67325439 577.36320557 437.43098145 577.7322998 438.21166992 C579.18476749 441.28358935 580.63735322 444.35545292 582.09008789 447.42724609 C585.9087139 455.50286953 589.71753674 463.58309543 593.52172852 471.66552734 C593.85323914 472.36979858 594.18474976 473.07406982 594.52630615 473.79968262 C599.41405759 484.18567002 604.27500368 494.58392704 609.12115479 504.98937988 C614.3705656 516.25815019 619.6785141 527.49882592 624.99459839 538.73626709 C629.64578509 548.57042725 634.26612478 558.41743608 638.83422852 568.29052734 C643.72331409 578.85537725 648.67090428 589.3913152 653.64672852 599.91552734 C654.00472534 600.672771 654.36272217 601.43001465 654.73156738 602.21020508 C656.18274753 605.27958892 657.63405912 608.34891058 659.08554077 611.41815186 C662.92554688 619.53892811 666.75778247 627.66335325 670.58422852 635.79052734 C670.91735046 636.49802124 671.25047241 637.20551514 671.59368896 637.93444824 C676.01653418 647.3309436 680.40828999 656.7412629 684.77172852 666.16552734 C689.68274565 676.77148702 694.65122599 687.34916088 699.64672852 697.91552734 C700.0046347 698.67258972 700.36254089 699.4296521 700.73129272 700.20965576 C702.18256703 703.27923406 703.63398112 706.34874622 705.08555603 709.41818237 C708.92555494 717.53894959 712.75773751 725.66338689 716.58422852 733.79052734 C716.9176828 734.49868591 717.25113708 735.20684448 717.59469604 735.9364624 C722.52225332 746.40451006 727.40227338 756.89384142 732.26098633 767.39404297 C737.27874246 778.21521002 742.39349179 788.9897242 747.50894165 799.76495361 C752.34890916 809.96186538 757.15890802 820.17065722 761.89672852 830.41552734 C766.76396188 840.9392335 771.6905829 851.43346508 776.64672852 861.91552734 C777.00481598 862.67295227 777.36290344 863.4303772 777.73184204 864.21075439 C779.18292804 867.27994379 780.63413712 870.34907494 782.08552551 873.41812134 C785.92553886 881.53890674 789.75777763 889.66334297 793.58422852 897.79052734 C793.91735046 898.49802124 794.25047241 899.20551514 794.59368896 899.93444824 C799.01653418 909.3309436 803.40828999 918.7412629 807.77172852 928.16552734 C812.68274565 938.77148702 817.65122599 949.34916088 822.64672852 959.91552734 C823.0046347 960.67258972 823.36254089 961.4296521 823.73129272 962.20965576 C825.18256703 965.27923406 826.63398112 968.34874622 828.08555603 971.41818237 C831.92555489 979.53894948 835.75778731 987.66336354 839.58422852 995.79052734 C839.91735046 996.49802124 840.25047241 997.20551514 840.59368896 997.93444824 C845.53562666 1008.43377444 850.43448664 1018.95243642 855.30712891 1029.48413086 C858.46049467 1036.28829887 861.64350042 1043.07759945 864.84985352 1049.85693359 C865.43072472 1051.0851886 865.43072472 1051.0851886 866.02333069 1052.33825684 C867.93807032 1056.38527768 869.85530028 1060.43110111 871.77539062 1064.47558594 C872.47600893 1065.9542567 873.17661189 1067.43293473 873.87719727 1068.91162109 C874.19742859 1069.58431534 874.51765991 1070.25700958 874.84759521 1070.9500885 C876.46034104 1074.35690942 877.98133678 1077.77199765 879.33422852 1081.29052734 C879.99422852 1081.29052734 880.65422852 1081.29052734 881.33422852 1081.29052734 C881.60348145 1080.707146 881.87273438 1080.12376465 882.15014648 1079.52270508 C882.53831543 1078.68167236 882.92648437 1077.84063965 883.32641602 1076.97412109 C883.7744458 1076.00337646 884.22247559 1075.03263184 884.68408203 1074.0324707 C885.72880014 1071.76894266 886.7735614 1069.50543454 887.81835938 1067.24194336 C890.68218641 1061.03752673 893.54549192 1054.83287047 896.40745544 1048.62759399 C909.3551811 1020.55489912 922.33696464 992.49804286 935.36474609 964.46240234 C941.29813626 951.6935576 947.204012 938.9122219 953.10144043 926.1267395 C959.10441881 913.11321063 965.12001357 900.10558067 971.14672852 887.10302734 C971.54916779 886.23475311 971.95160706 885.36647888 972.36624146 884.47189331 C976.69490212 875.13345428 981.02721363 865.79672387 985.36474609 856.46240234 C991.29813626 843.6935576 997.204012 830.9122219 1003.10144043 818.1267395 C1009.10441881 805.11321063 1015.12001357 792.10558067 1021.14672852 779.10302734 C1021.54916779 778.23475311 1021.95160706 777.36647888 1022.36624146 776.47189331 C1026.69490212 767.13345428 1031.02721363 757.79672387 1035.36474609 748.46240234 C1041.29813626 735.6935576 1047.204012 722.9122219 1053.10144043 710.1267395 C1059.10441881 697.11321063 1065.12001357 684.10558067 1071.14672852 671.10302734 C1071.54916779 670.23475311 1071.95160706 669.36647888 1072.36624146 668.47189331 C1076.69490212 659.13345428 1081.02721363 649.79672387 1085.36474609 640.46240234 C1091.29813626 627.6935576 1097.204012 614.9122219 1103.10144043 602.1267395 C1109.10441881 589.11321063 1115.12001357 576.10558067 1121.14672852 563.10302734 C1121.54916779 562.23475311 1121.95160706 561.36647888 1122.36624146 560.47189331 C1126.69490212 551.13345428 1131.02721363 541.79672387 1135.36474609 532.46240234 C1141.29813626 519.6935576 1147.204012 506.9122219 1153.10144043 494.1267395 C1159.10441881 481.11321063 1165.12001357 468.10558067 1171.14672852 455.10302734 C1171.54916779 454.23475311 1171.95160706 453.36647888 1172.36624146 452.47189331 C1176.69490212 443.13345428 1181.02721363 433.79672387 1185.36474609 424.46240234 C1191.29813626 411.6935576 1197.204012 398.9122219 1203.10144043 386.1267395 C1209.10441881 373.11321063 1215.12001357 360.10558067 1221.14672852 347.10302734 C1221.54916779 346.23475311 1221.95160706 345.36647888 1222.36624146 344.47189331 C1226.69490212 335.13345428 1231.02721363 325.79672387 1235.36474609 316.46240234 C1241.29813626 303.6935576 1247.204012 290.9122219 1253.10144043 278.1267395 C1259.10441881 265.11321063 1265.12001357 252.10558067 1271.14672852 239.10302734 C1271.54916779 238.23475311 1271.95160706 237.36647888 1272.36624146 236.47189331 C1276.69490212 227.13345428 1281.02721363 217.79672387 1285.36474609 208.46240234 C1291.29813626 195.6935576 1297.204012 182.9122219 1303.10144043 170.1267395 C1309.10441881 157.11321063 1315.12001357 144.10558067 1321.14672852 131.10302734 C1321.54916779 130.23475311 1321.95160706 129.36647888 1322.36624146 128.47189331 C1326.17017888 120.26546633 1329.97583285 112.05984151 1333.78735352 103.85693359 C1334.3087793 102.73472412 1334.83020508 101.61251465 1335.36743164 100.45629883 C1336.37885725 98.27989304 1337.39057129 96.10362127 1338.40258789 93.92749023 C1341.56758109 87.11563462 1344.71352873 80.295307 1347.84985352 73.47021484 C1349.05318352 70.85413624 1350.25667134 68.23813027 1351.46017456 65.62213135 C1352.23551656 63.93520762 1353.00991074 62.24784784 1353.78323364 60.55999756 C1357.64354137 52.1345551 1361.54659683 43.73543433 1365.66235352 35.43115234 C1365.98162308 34.78208923 1366.30089264 34.13302612 1366.62983704 33.46429443 C1373.66344455 19.42425546 1385.72789272 8.62637206 1400.478872 3.11576504 C1409.28362677 0.45556259 1417.37815737 -0.27847117 1426.53242493 -0.2106781 C1428.01320067 -0.21458096 1429.49397263 -0.22022924 1430.97473592 -0.227449 C1435.00358587 -0.24208091 1439.03204007 -0.23209628 1443.06087673 -0.21771228 C1447.4216151 -0.20653555 1451.78230096 -0.21856725 1456.14303589 -0.22755432 C1464.67068866 -0.24144448 1473.19819273 -0.2339614 1481.72583834 -0.21887874 C1491.6720953 -0.2019614 1501.61831581 -0.20523623 1511.56458273 -0.20897282 C1529.32238194 -0.21484392 1547.08011013 -0.20071059 1564.83789062 -0.17602539 C1582.03843855 -0.15211774 1599.23889157 -0.1450179 1616.43945312 -0.15551758 C1635.20007616 -0.16694916 1653.96065536 -0.16882837 1672.72127789 -0.15441948 C1674.72522334 -0.15289376 1676.72916879 -0.15137341 1678.73311424 -0.14985847 C1680.21180472 -0.14872175 1680.21180472 -0.14872175 1681.72036773 -0.14756207 C1688.64005013 -0.14283568 1695.55971283 -0.14465904 1702.47939491 -0.14892387 C1710.92391484 -0.15387117 1719.36834535 -0.1477751 1727.81284491 -0.12802958 C1732.11473214 -0.11821571 1736.41648378 -0.11298785 1740.71837807 -0.12092209 C1744.66823076 -0.12805747 1748.61781174 -0.12099407 1752.567629 -0.10331846 C1753.98472592 -0.0993241 1755.40184825 -0.10018766 1756.81893519 -0.10683732 C1787.222837 -0.23712348 1817.65692815 10.11022123 1841.33422852 29.29052734 C1841.88224121 29.72333008 1842.43025391 30.15613281 1842.99487305 30.60205078 C1865.08416738 48.10725712 1880.62890113 70.61644631 1889.77172852 97.29052734 C1890.08964355 98.2017334 1890.40755859 99.11293945 1890.73510742 100.05175781 C1896.55274335 118.00537661 1896.7675113 136.16713404 1896.71175194 154.84755039 C1896.71488592 157.51449347 1896.71921019 160.18141107 1896.72496504 162.8483474 C1896.73508218 168.63855523 1896.73419487 174.42867813 1896.7259144 180.21888769 C1896.71357454 188.88701592 1896.71868942 197.55507598 1896.72706233 206.22320585 C1896.74082995 221.00033768 1896.74042813 235.77743847 1896.7322197 250.55457306 C1896.72395605 265.52243363 1896.72223284 280.4902738 1896.7284317 295.4581356 C1896.72881922 296.40472017 1896.72920674 297.35130474 1896.729606 298.32657369 C1896.73120587 302.18207863 1896.732852 306.03758354 1896.73455683 309.89308843 C1896.75041255 345.77662546 1896.75150638 381.66014881 1896.74311447 417.54368782 C1896.74286609 418.60629158 1896.7426177 419.66889534 1896.74236179 420.76369922 C1896.742113 421.82800786 1896.74186421 422.89231649 1896.74160788 423.98887691 C1896.73403683 456.42029965 1896.73208486 488.85171674 1896.73567581 521.28314018 C1896.73590825 523.45532664 1896.73613972 525.62751311 1896.73637022 527.79969957 C1896.73730163 536.52891838 1896.73825763 545.25813718 1896.73924951 553.98735599 C1896.74200046 578.38867519 1896.74371232 602.78999441 1896.74460793 627.19131374 C1896.74464886 628.30246628 1896.7446898 629.41361881 1896.74473198 630.55844264 C1896.74595971 665.9615373 1896.74257967 701.36462999 1896.73605919 736.76772404 C1896.73584844 737.91589723 1896.73563769 739.06407043 1896.73542056 740.24703676 C1896.73198576 758.89235643 1896.72832735 777.53767607 1896.72465004 796.1829957 C1896.71008065 870.13396548 1896.71075782 944.08491896 1896.7253418 1018.03588867 C1896.72900539 1036.67301717 1896.73263856 1055.31014567 1896.73605919 1073.94727421 C1896.73637621 1075.66862811 1896.73637621 1075.66862811 1896.73669963 1077.42475683 C1896.74316848 1112.79201617 1896.74591095 1148.15927416 1896.74460793 1183.52653408 C1896.7445468 1185.19201707 1896.7445468 1185.19201707 1896.74448443 1186.89114619 C1896.74354698 1211.26478992 1896.74164604 1235.63843351 1896.73887642 1260.01207709 C1896.737889 1268.73315303 1896.73694976 1277.45422898 1896.73602428 1286.17530493 C1896.73579212 1288.34486255 1896.73555593 1290.51442018 1896.73531569 1292.6839778 C1896.73173542 1325.10712089 1896.73478326 1357.5302576 1896.74236179 1389.95339989 C1896.74273437 1391.54742973 1896.74273437 1391.54742973 1896.74311447 1393.17366219 C1896.74336252 1394.23438661 1896.74361057 1395.29511104 1896.74386613 1396.38797862 C1896.75214153 1432.16736162 1896.74909545 1467.94672821 1896.73327224 1503.72610886 C1896.73161519 1507.56884594 1896.73000508 1511.41158303 1896.7284317 1515.25432014 C1896.72804108 1516.19738788 1896.72765046 1517.14045561 1896.727248 1518.11210116 C1896.72133289 1533.03949315 1896.72544836 1547.96686474 1896.73373872 1562.8942549 C1896.74167831 1577.57528125 1896.73888204 1592.2562732 1896.72469646 1606.9372952 C1896.71669937 1615.54163324 1896.71684222 1624.1458769 1896.72914125 1632.7502104 C1896.73649378 1638.47077786 1896.73289367 1644.19127211 1896.72054069 1649.91183076 C1896.71384786 1653.1506719 1896.7133322 1656.38929051 1896.72299024 1659.62812952 C1896.83235974 1699.11290943 1886.61152434 1734.83612776 1859.33422852 1764.29052734 C1858.83552246 1764.83306152 1858.33681641 1765.3755957 1857.82299805 1765.93457031 C1834.08652618 1791.46869231 1800.43554244 1808.61868761 1765.33287048 1810.44683838 C1761.39242074 1810.58653234 1757.45175292 1810.69274398 1753.51000977 1810.78662109 C1752.72385096 1810.80639952 1751.93769215 1810.82617794 1751.12771034 1810.84655571 C1719.26589857 1811.63946272 1687.39033093 1811.95135298 1655.52172852 1812.35302734 C1654.22857231 1812.36934629 1654.22857231 1812.36934629 1652.90929174 1812.38599491 C1626.71791884 1812.71598407 1600.52630344 1813.0216898 1574.33422852 1813.29052734 C1573.63650267 1813.29769052 1572.93877682 1813.30485369 1572.21990776 1813.31223392 C1557.11333232 1813.4665213 1542.00711282 1813.59343588 1526.89981079 1813.64401245 C1523.28151361 1813.65627891 1519.66345458 1813.67733397 1516.04525757 1813.70681763 C1470.72711871 1814.05848551 1432.92329324 1803.45037761 1399.83422852 1771.16552734 C1375.48588097 1746.72383609 1360.15986321 1712.19154292 1360.19556332 1677.60586643 C1360.1927211 1676.53580247 1360.18987888 1675.46573852 1360.18695053 1674.36324838 C1360.1786059 1670.76531558 1360.17733549 1667.167415 1360.17601013 1663.56947327 C1360.17144463 1660.96893167 1360.16644462 1658.36839081 1360.16104656 1655.76785082 C1360.14999842 1650.10755351 1360.14262125 1644.44726065 1360.13764763 1638.78695488 C1360.13023541 1630.37029262 1360.11715082 1621.95364587 1360.10290188 1613.53699275 C1360.07909346 1599.37872663 1360.05988838 1585.22045775 1360.04330254 1571.06218147 C1360.02686432 1557.04275192 1360.00838273 1543.02332752 1359.98716927 1529.00390434 C1359.98585166 1528.1323734 1359.98453405 1527.26084245 1359.98317652 1526.36290147 C1359.97647448 1521.93687589 1359.9697359 1517.51085036 1359.96298326 1513.08482485 C1359.91521416 1481.73144096 1359.87203086 1450.37805227 1359.83154297 1419.0246582 C1359.79219788 1388.56436819 1359.75077652 1358.10408215 1359.70654297 1327.64379883 C1359.70518044 1326.70495834 1359.70381791 1325.76611786 1359.70241409 1324.79882766 C1359.68872877 1315.37064639 1359.67500123 1305.94246518 1359.66124275 1296.51428402 C1359.63321585 1277.3078171 1359.60547078 1258.10134978 1359.57789612 1238.8948822 C1359.57662792 1238.0117907 1359.57535972 1237.1286992 1359.57405309 1236.21884734 C1359.48939041 1177.24274715 1359.41129765 1118.26663789 1359.33422852 1059.29052734 C1357.0568897 1064.77802746 1354.78005217 1070.26573523 1352.50363159 1075.75361633 C1351.73305005 1077.61111237 1350.96234367 1079.46855663 1350.1914978 1081.32594299 C1344.91858823 1094.03156 1339.67261488 1106.74787018 1334.45922852 1119.47802734 C1333.82929993 1121.01534012 1333.82929993 1121.01534012 1333.18664551 1122.58370972 C1332.57609888 1124.07382631 1331.96565866 1125.56398651 1331.35534668 1127.05419922 C1326.58234735 1138.70611121 1321.7714164 1150.34225889 1316.95922852 1161.97802734 C1310.71848475 1177.06904826 1304.50890746 1192.17235693 1298.33422852 1207.29052734 C1292.15954914 1222.40869881 1285.94976293 1237.51191922 1279.70922852 1252.60302734 C1273.83700394 1266.80399426 1267.97620067 1281.00945129 1262.14672852 1295.22802734 C1261.82086761 1296.02277466 1261.49500671 1296.81752197 1261.15927124 1297.63635254 C1258.88343957 1303.18740926 1256.60869229 1308.73891003 1254.33422852 1314.29052734 C1251.73083523 1320.64501118 1249.12691742 1326.99927943 1246.52172852 1333.35302734 C1246.19629059 1334.14675751 1245.87085266 1334.94048767 1245.53555298 1335.75827026 C1239.58891485 1350.258751 1233.60704203 1364.74457405 1227.61981201 1379.22833252 C1222.11151194 1392.55450699 1216.61702009 1405.88620371 1211.14672852 1419.22802734 C1210.82104889 1420.02232147 1210.49536926 1420.8166156 1210.15982056 1421.63497925 C1207.88380489 1427.18649336 1205.60887919 1432.73845383 1203.33422852 1438.29052734 C1200.73083523 1444.64501118 1198.12691742 1450.99927943 1195.52172852 1457.35302734 C1195.19629059 1458.14675751 1194.87085266 1458.94048767 1194.53555298 1459.75827026 C1188.58794531 1474.26111516 1182.60544719 1488.74944775 1176.61679077 1503.23538208 C1170.84331335 1517.20163953 1165.09214263 1531.17679774 1159.36297607 1545.1612854 C1153.52378657 1559.41257214 1147.64717852 1573.64821894 1141.75878906 1587.87924194 C1136.91708611 1599.58170695 1132.10199871 1611.29437642 1127.32806396 1623.0246582 C1111.09015687 1662.91836048 1095.05469554 1700.56608577 1065.62329102 1732.77880859 C1064.08162622 1734.47043054 1062.55577407 1736.17658385 1061.04516602 1737.89599609 C1056.43044751 1743.1371111 1051.68517031 1747.81603291 1046.33422852 1752.29052734 C1045.40094727 1753.11166016 1044.46766602 1753.93279297 1043.50610352 1754.77880859 C993.54618551 1798.51929079 925.94108642 1818.08785725 860.25976562 1813.77734375 C809.10435481 1809.96241729 761.62047486 1792.04607038 721.33422852 1760.29052734 C720.78734375 1759.86223633 720.24045898 1759.43394531 719.67700195 1758.99267578 C704.73814484 1747.17731337 690.80501018 1733.37452585 679.57592773 1717.9765625 C678.29597796 1716.23858902 676.97799414 1714.53547107 675.65063477 1712.83349609 C670.32097729 1705.91489007 665.63729694 1698.72954716 661.27172852 1691.16552734 C660.60282593 1690.01491821 660.60282593 1690.01491821 659.92041016 1688.84106445 C651.4402687 1673.79360675 644.55077474 1657.8561138 637.97485352 1641.90551758 C636.45367959 1638.21591298 634.92014607 1634.53147689 633.38766479 1630.84655762 C632.5821552 1628.90938767 631.77724628 1626.97196785 630.97293091 1625.03430176 C627.02963752 1615.5387949 623.02995836 1606.0674441 619.02264404 1596.59881592 C612.40773782 1580.9674436 605.8220776 1565.32406073 599.27172852 1549.66552734 C598.90191864 1548.78153259 598.53210876 1547.89753784 598.15109253 1546.98675537 C595.17266627 1539.86629149 592.19609243 1532.74505359 589.21960449 1525.6237793 C586.612854 1519.38732926 584.00535364 1513.15119349 581.39672852 1506.91552734 C580.84213455 1505.58977692 580.84213455 1505.58977692 580.27633667 1504.23724365 C574.49054577 1490.40969594 568.67038672 1476.59688355 562.83422852 1462.79052734 C556.62127012 1448.09279064 550.42980883 1433.38634679 544.27172852 1418.66552734 C543.90191864 1417.78153259 543.53210876 1416.89753784 543.15109253 1415.98675537 C540.17266627 1408.86629149 537.19609243 1401.74505359 534.21960449 1394.6237793 C531.612854 1388.38732926 529.00535364 1382.15119349 526.39672852 1375.91552734 C525.84213455 1374.58977692 525.84213455 1374.58977692 525.27633667 1373.23724365 C519.09487196 1358.46406923 512.87271233 1343.70830905 506.63674927 1328.95806885 C502.34432701 1318.80410467 498.05847851 1308.64753044 493.80297852 1298.47802734 C493.43262482 1297.59299026 493.06227112 1296.70795319 492.68069458 1295.7960968 C490.82926707 1291.36982681 488.98041663 1286.94249597 487.13452148 1282.51391602 C483.61126716 1274.06870723 480.06379088 1265.63547213 476.44683838 1257.22988892 C474.70034915 1253.17084176 472.96198131 1249.10833292 471.22338867 1245.04589844 C470.39511151 1243.11773064 469.56258155 1241.19138288 468.7253418 1239.26708984 C458.67954962 1216.17444261 453.19178287 1195.35199008 462.61938477 1170.96630859 C466.00883986 1163.59259152 470.5928304 1157.9724291 476.33422852 1152.29052734 C477.22174805 1151.35273438 477.22174805 1151.35273438 478.12719727 1150.39599609 C482.34432085 1146.27196575 487.11723379 1143.62577952 492.33422852 1140.97802734 C492.9988208 1140.64013184 493.66341309 1140.30223633 494.34814453 1139.95410156 C508.60520819 1133.03149536 527.3508405 1132.83633183 542.26782227 1137.97021484 C560.27771536 1145.72479302 572.71908073 1158.76012804 580.20922852 1176.79052734 C580.65645264 1177.83547363 581.10367676 1178.88041992 581.56445312 1179.95703125 C582.8709191 1183.02352222 584.16264725 1186.09548233 585.4475708 1189.17102051 C586.39394954 1191.4332872 587.34482812 1193.69362346 588.29663086 1195.95361328 C592.87947951 1206.83755126 597.43225012 1217.73389791 601.97583008 1228.63427734 C605.73322275 1237.64799992 609.50186141 1246.65701643 613.27172852 1255.66552734 C613.64073273 1256.54754822 614.00973694 1257.42956909 614.3899231 1258.33831787 C620.57209645 1273.11333394 626.79497661 1287.87092881 633.03170776 1302.62298584 C639.20285615 1317.22118141 645.33686951 1331.83451558 651.44897461 1346.45751953 C657.21392814 1360.24799479 663.01387462 1374.02334861 668.83422852 1387.79052734 C675.04737371 1402.48818454 681.23864856 1417.19470874 687.39672852 1431.91552734 C687.76653839 1432.79952209 688.13634827 1433.68351685 688.5173645 1434.59429932 C691.49579076 1441.7147632 694.4723646 1448.8360011 697.44885254 1455.95727539 C700.05560303 1462.19372542 702.66310339 1468.4298612 705.27172852 1474.66552734 C705.82632248 1475.99127777 705.82632248 1475.99127777 706.39212036 1477.34381104 C712.57190016 1492.11295868 718.79208166 1506.864819 725.02667236 1521.61090088 C730.54691253 1534.66838661 736.04054716 1547.73665397 741.50759888 1560.8164978 C742.63609666 1563.51510312 743.76600915 1566.21311118 744.89648438 1568.91088867 C745.63094199 1570.66373646 746.36539839 1572.41658476 747.09985352 1574.16943359 C747.45713028 1575.02201248 747.81440704 1575.87459137 748.18251038 1576.75300598 C750.23305648 1581.64967199 752.27257854 1586.55073588 754.30325317 1591.45567322 C769.52660059 1628.19711957 788.2667299 1660.69832492 826.33422852 1677.29052734 C860.49544981 1691.03497352 897.18135753 1691.13306529 931.33422852 1677.29052734 C973.2311191 1658.93102213 991.24868783 1622.2187558 1007.27880859 1581.91899109 C1011.01508355 1572.54515386 1014.89234775 1563.23081961 1018.77172852 1553.91552734 C1020.20747629 1550.46275607 1021.64214469 1547.00953717 1023.07641602 1543.55615234 C1023.43088806 1542.70279297 1023.78536011 1541.84943359 1024.15057373 1540.97021484 C1027.9244481 1531.87897067 1031.66388435 1522.77368085 1035.39672852 1513.66552734 C1035.72586243 1512.86255219 1036.05499634 1512.05957703 1036.394104 1511.23226929 C1038.38055228 1506.3855373 1040.36597975 1501.53838768 1042.35107422 1496.69110107 C1045.28140105 1489.5361045 1048.2133679 1482.38178066 1051.14672852 1475.22802734 C1051.47198517 1474.43475037 1051.79724182 1473.64147339 1052.13235474 1472.82415771 C1058.08014157 1458.32085337 1064.06282146 1443.83206262 1070.05166626 1429.34567261 C1075.82514368 1415.37941516 1081.5763144 1401.40425695 1087.30548096 1387.41976929 C1092.74786911 1374.13692686 1098.22354609 1360.86804187 1103.70922852 1347.60302734 C1110.32528004 1331.60421184 1116.90254181 1315.59005168 1123.44842529 1299.56240845 C1129.60479221 1284.49074261 1135.80881206 1269.43921042 1142.03198242 1254.39501953 C1147.83143029 1240.37318025 1153.59708371 1226.33796804 1159.33422852 1212.29052734 C1165.90709847 1196.19725311 1172.52342852 1180.12242038 1179.16674805 1164.05810547 C1184.57614915 1150.97715015 1189.96801261 1137.88925747 1195.33422852 1124.79052734 C1201.09973067 1110.71715458 1206.89717816 1096.65723726 1212.70922852 1082.60302734 C1218.94989037 1067.51197232 1225.1595494 1052.40869816 1231.33422852 1037.29052734 C1237.50890789 1022.17235588 1243.7186941 1007.06913547 1249.95922852 991.97802734 C1255.83145309 977.77706042 1261.69225636 963.57160339 1267.52172852 949.35302734 C1267.84758942 948.55828003 1268.17345032 947.76353271 1268.50918579 946.94470215 C1270.78501746 941.39364542 1273.05976475 935.84214466 1275.33422852 930.29052734 C1277.9376218 923.93604351 1280.54153961 917.58177526 1283.14672852 911.22802734 C1283.47216644 910.43429718 1283.79760437 909.64056702 1284.13290405 908.82278442 C1290.07954218 894.32230368 1296.06141501 879.83648064 1302.04864502 865.35272217 C1307.5569451 852.0265477 1313.05143694 838.69485097 1318.52172852 825.35302734 C1318.84740814 824.55873322 1319.17308777 823.76443909 1319.50863647 822.94607544 C1321.78465214 817.39456132 1324.05957784 811.84260086 1326.33422852 806.29052734 C1334.60262692 786.10863466 1342.88360965 765.93201891 1351.20346069 745.77127075 C1352.02833031 743.77227142 1352.85290419 741.77315002 1353.67715454 739.77389526 C1355.89698898 734.39044737 1358.12341768 729.00983825 1360.3611145 723.63378906 C1361.26885341 721.4479508 1362.16895398 719.25910043 1363.06835938 717.06982422 C1371.37787895 697.01861647 1384.55219463 686.35789091 1404.10766602 678.12255859 C1419.67228412 672.89343611 1438.60544459 675.76810148 1453.02172852 682.85302734 C1466.87278266 691.01894732 1478.50291055 704.39881771 1483.11352927 719.91273702 C1485.39175785 728.86428146 1485.75536914 737.45731849 1485.70781612 746.62901115 C1485.71053461 748.25367634 1485.7145698 749.87833976 1485.71979043 751.50299883 C1485.73031633 755.95344532 1485.72228776 760.40369125 1485.71116086 764.85412907 C1485.70238451 769.7011244 1485.71111786 774.54809378 1485.71762902 779.39508832 C1485.7266551 787.8853305 1485.72464817 796.37551397 1485.71538734 804.86575508 C1485.70169312 817.49074926 1485.70527368 830.11569724 1485.7125518 842.74069466 C1485.72438899 863.98087271 1485.72288432 885.22102962 1485.71435356 906.46120834 C1485.70292752 935.46052259 1485.71207339 964.45980522 1485.72691537 993.45911659 C1485.73382669 1006.96876724 1485.73975419 1020.47841834 1485.74549198 1033.98806953 C1485.74578063 1034.66395754 1485.74606928 1035.33984554 1485.74636668 1036.036215 C1485.76006061 1068.19137304 1485.76517782 1100.34653091 1485.76788608 1132.50169155 C1485.76806645 1134.63480956 1485.76825248 1136.76792756 1485.76843958 1138.90104556 C1485.77117305 1170.33839625 1485.77207305 1201.77574673 1485.77101592 1233.21309752 C1485.77060941 1245.34024651 1485.7703098 1257.46739551 1485.77006409 1269.59454451 C1485.77001954 1271.72844669 1485.76997008 1273.86234886 1485.76992021 1275.99625104 C1485.76920709 1308.13541822 1485.77179573 1340.27457962 1485.78617191 1372.41374397 C1485.78662257 1373.42670898 1485.78662257 1373.42670898 1485.78708232 1374.46013792 C1485.7934031 1388.61773689 1485.80046832 1402.77533534 1485.80858068 1416.9329334 C1485.82507056 1445.90426898 1485.83105835 1474.87555125 1485.81574134 1503.84688857 C1485.80477783 1524.95798783 1485.80762593 1546.06904655 1485.82493239 1567.18014197 C1485.83474838 1579.73186325 1485.83322112 1592.28346762 1485.81578988 1604.83518124 C1485.80523731 1613.21028402 1485.80904367 1621.58529931 1485.82469331 1629.96039395 C1485.83319523 1634.73796308 1485.83524821 1639.51530289 1485.8197773 1644.29285966 C1485.80582868 1648.63603904 1485.81014783 1652.9787959 1485.82925319 1657.32195215 C1485.83289089 1658.88623537 1485.82977578 1660.450552 1485.81920527 1662.01480374 C1485.56927067 1672.86924208 1485.56927067 1672.86924208 1490.33422852 1682.29052734 C1495.62240499 1686.39156216 1499.31375635 1687.41701187 1505.91067505 1687.407547 C1506.92341212 1687.40773529 1506.92341212 1687.40773529 1507.95660853 1687.40792739 C1510.23893782 1687.40650523 1512.52115882 1687.39721124 1514.8034668 1687.38745117 C1516.45537853 1687.38363074 1518.10729061 1687.37995393 1519.75920296 1687.37640858 C1542.44926513 1687.31176158 1565.13821923 1687.01985913 1587.82641602 1686.73974609 C1589.01223597 1686.72515988 1590.19805593 1686.71057366 1591.41980982 1686.69554543 C1602.63448251 1686.55738681 1613.84912984 1686.41731631 1625.0637188 1686.27250957 C1639.28942575 1686.08894803 1653.51518059 1685.91530481 1667.74116409 1685.75455159 C1677.82530089 1685.63979411 1687.9092631 1685.51397092 1697.99316132 1685.37989169 C1703.98936128 1685.30046139 1709.98552833 1685.22588979 1715.98192978 1685.16330528 C1721.59184117 1685.10453121 1727.20140897 1685.03208008 1732.81101227 1684.94905472 C1734.86566328 1684.92103024 1736.92038901 1684.89797327 1738.97515488 1684.88027 C1741.78026816 1684.85534927 1744.58456155 1684.81249247 1747.38937378 1684.7651825 C1748.19975408 1684.76224817 1749.01013439 1684.75931385 1749.84507167 1684.75629061 C1755.06645277 1684.64308102 1758.6419752 1683.58957433 1763.33422852 1681.29052734 C1764.32422852 1680.96052734 1765.31422852 1680.63052734 1766.33422852 1680.29052734 C1767.4934498 1678.55909881 1767.4934498 1678.55909881 1768.33422852 1676.29052734 C1768.67837007 1675.47037507 1769.02251162 1674.65022279 1769.3770817 1673.80521741 C1770.66747618 1669.06682557 1770.60904422 1664.63235449 1770.58607751 1659.74298626 C1770.58900638 1658.67371356 1770.59193524 1657.60444085 1770.59495286 1656.50276594 C1770.60237118 1652.89419343 1770.59546235 1649.28578837 1770.58870411 1645.67721653 C1770.59109236 1643.06303619 1770.59435651 1640.44885653 1770.59842071 1637.83467826 C1770.60587455 1632.11980637 1770.60585811 1626.40497173 1770.60103122 1620.69009758 C1770.59384077 1612.13469845 1770.59814647 1603.57933157 1770.60471257 1595.02393331 C1770.6155599 1580.44432618 1770.6168649 1565.86473195 1770.61301422 1551.28512192 C1770.60914182 1536.50532003 1770.6095869 1521.72552778 1770.61532402 1506.94572639 C1770.61568285 1506.01304812 1770.61604167 1505.08036984 1770.61641137 1504.11942859 C1770.61788624 1500.32092315 1770.61939063 1496.52241773 1770.62093284 1492.72391232 C1770.63658064 1454.13731995 1770.63924541 1415.55073419 1770.63677677 1376.96413921 C1770.63643834 1371.62981724 1770.63611624 1366.29549527 1770.63581109 1360.9611733 C1770.63575005 1359.90169987 1770.635689 1358.84222645 1770.63562611 1357.75064777 C1770.63435506 1334.28748521 1770.63695404 1310.82432357 1770.64033716 1287.36116128 C1770.64110789 1282.00622987 1770.64185262 1276.65129845 1770.64260217 1271.29636703 C1770.64290386 1269.14727763 1770.64320574 1266.99818822 1770.64350781 1264.84909881 C1770.64373233 1263.25122124 1770.64373233 1263.25122124 1770.64396139 1261.62106332 C1770.64426492 1259.46639174 1770.6445696 1257.31172017 1770.64487543 1255.1570486 C1770.65355078 1194.00427866 1770.65819067 1132.85150953 1770.6539278 1071.69873905 C1770.65384975 1070.56594273 1770.65377169 1069.43314641 1770.65369127 1068.26602292 C1770.65281844 1055.6336264 1770.65188918 1043.00122988 1770.65094063 1030.36883337 C1770.65085512 1029.22827469 1770.65076962 1028.08771601 1770.65068152 1026.91259494 C1770.65016273 1019.99381138 1770.65016273 1019.99381138 1770.64963929 1013.07502783 C1770.64410254 940.10852594 1770.65164745 867.14203671 1770.67041016 794.17553711 C1770.67513219 775.78911116 1770.67981262 757.40268521 1770.68424702 739.01625919 C1770.68452034 737.88420561 1770.68479366 736.75215203 1770.68507527 735.58579379 C1770.6934434 700.70869496 1770.69812593 665.83159717 1770.69895458 630.95449734 C1770.69898095 629.85989631 1770.69900732 628.76529529 1770.69903448 627.63752453 C1770.6995752 603.61131256 1770.69920294 579.58510067 1770.69799477 555.55888872 C1770.69756912 546.96244564 1770.697204 538.36600257 1770.69686533 529.76955948 C1770.69678002 527.6309027 1770.69669109 525.49224592 1770.69659851 523.35358913 C1770.69514836 489.2432496 1770.70228485 455.13291865 1770.71360247 421.02258118 C1770.72523837 385.72444144 1770.72583171 350.42631704 1770.71375904 315.12817723 C1770.71250715 311.34102795 1770.71130368 307.55387866 1770.71013832 303.76672935 C1770.70970288 302.37254325 1770.70970288 302.37254325 1770.70925864 300.95019176 C1770.7049261 286.20789154 1770.71067648 271.46561305 1770.72057851 256.72331623 C1770.73009443 242.2420299 1770.72896941 227.76077726 1770.71637229 213.27949291 C1770.70929961 204.78006749 1770.71049824 196.28073871 1770.72372067 187.78132009 C1770.73260593 181.48528779 1770.72598584 175.18936403 1770.7131311 168.89334058 C1770.71038637 166.35175905 1770.71274568 163.810166 1770.72063824 161.26859524 C1770.73058389 157.83335467 1770.72222459 154.39863613 1770.70912534 150.96341759 C1770.7164157 149.97303102 1770.72370606 148.98264445 1770.73121734 147.96224617 C1770.67490588 140.86409993 1769.65936128 136.04397404 1764.95922852 130.47802734 C1760.8808428 127.07937258 1757.375223 126.04222414 1752.11186504 126.02881432 C1751.07430811 126.02134882 1750.03675117 126.01388333 1748.96775311 126.00619161 C1747.83448757 126.00812635 1746.70122203 126.01006108 1745.53361511 126.01205444 C1743.72023501 126.00336584 1743.72023501 126.00336584 1741.87022096 125.99450171 C1738.51799202 125.98043665 1735.16596249 125.97527128 1731.81371844 125.97385311 C1728.19752468 125.97015833 1724.58137687 125.95500246 1720.96520996 125.9412384 C1714.70107187 125.91896421 1708.43695012 125.90395189 1702.17278099 125.89387131 C1693.11584936 125.87928599 1684.05897466 125.85374958 1675.00207642 125.82554002 C1660.30787722 125.78006936 1645.61366982 125.74345568 1630.91943359 125.71240234 C1616.64533041 125.68221793 1602.37124728 125.64786816 1588.09716797 125.60791016 C1587.21731789 125.60544861 1586.33746781 125.60298706 1585.43095561 125.60045092 C1581.01700757 125.58807634 1576.60305976 125.5756198 1572.18911207 125.56312251 C1535.57084521 125.4595506 1498.95255446 125.3703487 1462.33422852 125.29052734 C1462.13696041 125.89609718 1461.93969231 126.50166702 1461.73644638 127.12558746 C1461.47301563 127.92658623 1461.20958488 128.72758499 1460.93817139 129.55285645 C1460.67902828 130.34405128 1460.41988518 131.13524612 1460.15288925 131.95041656 C1458.95270484 135.38109836 1457.43499874 138.61780623 1455.84985352 141.88427734 C1455.35167366 142.92855392 1455.35167366 142.92855392 1454.84342957 143.993927 C1454.13154946 145.4855177 1453.41748024 146.97606531 1452.7013855 148.46563721 C1450.77132777 152.48223671 1448.85941473 156.50745028 1446.94750977 160.53271484 C1446.55761368 161.35299164 1446.16771759 162.17326843 1445.76600647 163.0184021 C1442.00819132 170.94242566 1438.37734162 178.921377 1434.77172852 186.91552734 C1429.66166656 198.23376697 1424.45052552 209.49924523 1419.14672852 220.72802734 C1413.03858464 233.66167131 1406.99861663 246.62398236 1401.02319336 259.61962891 C1397.61305398 267.03399265 1394.1914574 274.44308333 1390.77172852 281.85302734 C1390.39329803 282.67311279 1390.01486755 283.49319824 1389.62496948 284.33813477 C1378.88386656 307.61341159 1368.10620447 330.87180663 1357.30371094 354.11865234 C1351.37032078 366.88749708 1345.46444503 379.66883279 1339.5670166 392.45431519 C1333.56403822 405.46784406 1327.54844346 418.47547402 1321.52172852 431.47802734 C1321.11928925 432.34630157 1320.71684998 433.21457581 1320.30221558 434.10916138 C1315.97355491 443.44760041 1311.6412434 452.78433082 1307.30371094 462.11865234 C1301.37032078 474.88749708 1295.46444503 487.66883279 1289.5670166 500.45431519 C1283.56403822 513.46784406 1277.54844346 526.47547402 1271.52172852 539.47802734 C1271.11928925 540.34630157 1270.71684998 541.21457581 1270.30221558 542.10916138 C1265.97355491 551.44760041 1261.6412434 560.78433082 1257.30371094 570.11865234 C1251.37032078 582.88749708 1245.46444503 595.66883279 1239.5670166 608.45431519 C1233.56403822 621.46784406 1227.54844346 634.47547402 1221.52172852 647.47802734 C1221.11928925 648.34630157 1220.71684998 649.21457581 1220.30221558 650.10916138 C1215.97355491 659.44760041 1211.6412434 668.78433082 1207.30371094 678.11865234 C1201.37032078 690.88749708 1195.46444503 703.66883279 1189.5670166 716.45431519 C1183.56403822 729.46784406 1177.54844346 742.47547402 1171.52172852 755.47802734 C1171.11928925 756.34630157 1170.71684998 757.21457581 1170.30221558 758.10916138 C1165.97355491 767.44760041 1161.6412434 776.78433082 1157.30371094 786.11865234 C1151.37032078 798.88749708 1145.46444503 811.66883279 1139.5670166 824.45431519 C1133.56403822 837.46784406 1127.54844346 850.47547402 1121.52172852 863.47802734 C1121.11928925 864.34630157 1120.71684998 865.21457581 1120.30221558 866.10916138 C1115.97355491 875.44760041 1111.6412434 884.78433082 1107.30371094 894.11865234 C1101.37032078 906.88749708 1095.46444503 919.66883279 1089.5670166 932.45431519 C1083.56403822 945.46784406 1077.54844346 958.47547402 1071.52172852 971.47802734 C1071.11928925 972.34630157 1070.71684998 973.21457581 1070.30221558 974.10916138 C1065.97355491 983.44760041 1061.6412434 992.78433082 1057.30371094 1002.11865234 C1051.37032078 1014.88749708 1045.46444503 1027.66883279 1039.5670166 1040.45431519 C1030.86605021 1059.31666489 1022.13308375 1078.16412844 1013.3927002 1097.00823975 C1012.38373607 1099.18377863 1011.37503375 1101.35943865 1010.36645508 1103.53515625 C1009.75415066 1104.85595716 1009.14184599 1106.17675794 1008.52954102 1107.49755859 C1008.23911926 1108.12409836 1007.94869751 1108.75063812 1007.6494751 1109.39616394 C1005.79091332 1113.40464412 1003.92668925 1117.41045808 1002.06079102 1121.41552734 C1000.36768081 1125.05214554 998.69374444 1128.69602107 997.04516602 1132.35302734 C983.15838002 1162.96796899 958.74965317 1187.66578206 927.19775391 1199.77294922 C894.07866014 1211.80095324 858.08393241 1210.98928525 825.91235352 1196.48583984 C813.67209508 1190.73445481 803.26954253 1183.42809115 793.33422852 1174.29052734 C792.4615332 1173.50033203 791.58883789 1172.71013672 790.68969727 1171.89599609 C773.18617331 1155.27453949 763.89370114 1133.75106016 753.97875977 1112.18505859 C750.05384585 1103.64979216 746.04019282 1095.15705239 742.02172852 1086.66552734 C741.29868291 1085.13650479 740.57570137 1083.60745195 739.8527832 1082.07836914 C738.76287017 1079.77307765 737.67292986 1077.46779913 736.58279419 1075.16261292 C732.74278959 1067.04195186 728.91062991 1058.9176066 725.08422852 1050.79052734 C724.58454559 1049.7292865 724.58454559 1049.7292865 724.07476807 1048.64660645 C719.65192285 1039.25011109 715.26016704 1029.83979179 710.89672852 1020.41552734 C705.9857117 1009.80956836 701.0172871 999.23186681 696.02172852 988.66552734 C695.66348999 987.90780029 695.30525146 987.15007324 694.93615723 986.36938477 C693.48368954 983.29746534 692.03110381 980.22560177 690.57836914 977.15380859 C686.75974313 969.07818516 682.95092029 960.99795926 679.14672852 952.91552734 C678.8152179 952.2112561 678.48370728 951.50698486 678.14215088 950.78137207 C673.25439945 940.39538467 668.39345335 929.99712765 663.54730225 919.5916748 C658.29789143 908.3229045 652.98994293 897.08222876 647.67385864 885.8447876 C643.02267194 876.01062744 638.40233226 866.1636186 633.83422852 856.29052734 C628.94514294 845.72567743 623.99755275 835.18973948 619.02172852 824.66552734 C618.66373169 823.90828369 618.30573486 823.15104004 617.93688965 822.37084961 C616.4857095 819.30146576 615.03439791 816.23214411 613.58291626 813.16290283 C609.74291015 805.04212657 605.91067456 796.91770144 602.08422852 788.79052734 C601.75110657 788.08303345 601.41798462 787.37553955 601.07476807 786.64660645 C596.65192285 777.25011109 592.26016704 767.83979179 587.89672852 758.41552734 C582.98571139 747.80956767 578.01723104 737.23189381 573.02172852 726.66552734 C572.66382233 725.90846497 572.30591614 725.15140259 571.93716431 724.37139893 C570.48589 721.30182063 569.03447591 718.23230847 567.582901 715.16287231 C563.74290209 707.04210509 559.91071952 698.91766779 556.08422852 690.79052734 C555.75077423 690.08236877 555.41731995 689.37421021 555.07376099 688.64459229 C550.14620371 678.17654462 545.26618365 667.68721326 540.4074707 657.18701172 C535.38971457 646.36584467 530.27496524 635.59133049 525.15951538 624.81610107 C520.31954787 614.61918931 515.50954901 604.41039747 510.77172852 594.16552734 C505.90449515 583.64182119 500.97787413 573.14758961 496.02172852 562.66552734 C495.66364105 561.90810242 495.30555359 561.15067749 494.93661499 560.37030029 C493.48552899 557.3011109 492.03431991 554.23197975 490.58293152 551.16293335 C486.74291817 543.04214794 482.9106794 534.91771172 479.08422852 526.79052734 C478.75110657 526.08303345 478.41798462 525.37553955 478.07476807 524.64660645 C473.65192285 515.25011109 469.26016704 505.83979179 464.89672852 496.41552734 C459.98571139 485.80956767 455.01723104 475.23189381 450.02172852 464.66552734 C449.66382233 463.90846497 449.30591614 463.15140259 448.93716431 462.37139893 C447.48589 459.30182063 446.03447591 456.23230847 444.582901 453.16287231 C440.74290214 445.04210521 436.91066972 436.91769115 433.08422852 428.79052734 C432.75110657 428.08303345 432.41798462 427.37553955 432.07476807 426.64660645 C427.16873321 416.22355714 422.30519175 405.78144067 417.46734619 395.32653809 C412.83398686 385.33098063 408.13313398 375.36778802 403.42407227 365.40771484 C402.63492739 363.73773129 401.84582396 362.06772814 401.0567627 360.39770508 C399.14972739 356.36175399 397.24213708 352.32606569 395.33422852 348.29052734 C395.33367235 349.44406174 395.33311619 350.59759615 395.33254317 351.78608613 C395.31348477 391.28349773 395.29398407 430.78090909 395.27416992 470.27832031 C395.27377079 471.07403494 395.27337165 471.86974957 395.27296042 472.68957676 C395.23017691 557.95793998 395.18448276 643.22630105 395.13290405 728.49465942 C395.13175898 730.38888708 395.1306139 732.28311474 395.12946883 734.17734239 C395.10542414 773.93844472 395.08097017 813.69954679 395.05604346 853.46064858 C395.04352222 873.43422691 395.03107963 893.40780529 395.01871139 913.38138371 C395.01684524 916.39430616 395.01497684 919.40722861 395.01310836 922.42015106 C394.98435906 968.81008802 394.95729538 1015.20002521 394.93511963 1061.58996582 C394.93440449 1063.08588847 394.93440449 1063.08588847 394.93367489 1064.61203179 C394.92599841 1080.69097284 394.91846352 1096.76991397 394.91094741 1112.8488551 C394.88929422 1159.16613081 394.86659262 1205.48340494 394.83696556 1251.80067635 C394.8363567 1252.75333634 394.83574783 1253.70599633 394.83512052 1254.68752481 C394.82173506 1275.60170567 394.80781129 1296.51588613 394.79337796 1317.43006629 C394.78757979 1325.84547877 394.78185909 1334.26089131 394.77616501 1342.67630386 C394.77522742 1344.05784136 394.77522742 1344.05784136 394.77427089 1345.46728871 C394.75417652 1375.13320372 394.74038674 1404.79911755 394.72991036 1434.4650374 C394.71932645 1464.35357456 394.70254594 1494.24210132 394.67717819 1524.13062979 C394.67367238 1528.26304193 394.67023746 1532.39545413 394.66684532 1536.52786636 C394.66617782 1537.33792086 394.66551031 1538.14797535 394.66482258 1538.98257695 C394.65444612 1551.79770079 394.65074732 1564.61281747 394.64985065 1577.42794511 C394.64883068 1590.0363722 394.64070275 1602.64477822 394.62507259 1615.25319585 C394.61690918 1621.9950769 394.61208866 1628.73691494 394.61594971 1635.47880326 C394.61940346 1641.61734216 394.61363601 1647.75580203 394.60064787 1653.89432753 C394.59758098 1656.09626114 394.5978141 1658.29820259 394.60183726 1660.50013465 C394.62828223 1676.40434444 394.48042829 1692.56282765 390.08422852 1707.97802734 C389.86734375 1708.76290527 389.65045898 1709.5477832 389.42700195 1710.35644531 C382.74267669 1733.78961689 371.03145646 1753.62253033 354.33422852 1771.29052734 C353.53758789 1772.16322266 352.74094727 1773.03591797 351.92016602 1773.93505859 C330.64243484 1796.40202852 297.13275445 1813.18792981 265.84900916 1814.38567793 C262.83473955 1814.4281754 259.82190001 1814.43821542 256.80732727 1814.43769836 C255.65164519 1814.44137505 254.49596311 1814.44505174 253.30526036 1814.44883984 C250.11023308 1814.45792703 246.91523599 1814.46256765 243.72019804 1814.46522915 C240.26863719 1814.46914897 236.81709099 1814.47872628 233.36553955 1814.48744202 C225.03458581 1814.50716258 216.70363094 1814.5172685 208.37265971 1814.52616981 C204.44076779 1814.53056124 200.50887719 1814.53592594 196.57698631 1814.54115868 C183.49045879 1814.558169 170.40393208 1814.57265938 157.31739521 1814.57990742 C153.92481294 1814.58181704 150.53223068 1814.58373741 147.13964844 1814.58569336 C146.29652795 1814.5861771 145.45340746 1814.58666084 144.58473786 1814.58715924 C130.95104792 1814.59544541 117.31744612 1814.62075925 103.6837946 1814.65327404 C89.65776076 1814.68644927 75.63177153 1814.70436572 61.60569829 1814.70755166 C53.74231351 1814.70970745 45.87905713 1814.71831823 38.01571083 1814.74401283 C31.31352228 1814.76586362 24.61149332 1814.77370053 17.90927318 1814.76404605 C14.49802476 1814.75954195 11.08736802 1814.76339875 7.67612267 1814.7808075 C-34.03698384 1814.98161601 -70.81397307 1802.45312599 -101.05639648 1772.99365234 C-117.20742051 1756.73942689 -128.76416039 1736.73546805 -135.91577148 1715.04052734 C-136.14997803 1714.3518457 -136.38418457 1713.66316406 -136.62548828 1712.95361328 C-142.06059848 1695.56281966 -142.09697582 1677.70318556 -142.04329491 1659.67382812 C-142.04642887 1657.00036598 -142.05075312 1654.32692926 -142.056508 1651.65347385 C-142.06662542 1645.84896372 -142.06573765 1640.04453832 -142.05745737 1634.24002647 C-142.04511778 1625.55047226 -142.05023227 1616.86098605 -142.0586053 1608.17143019 C-142.07237311 1593.35775681 -142.071971 1578.54411438 -142.06376266 1563.73043823 C-142.05549907 1548.72548801 -142.05377577 1533.72055814 -142.05997467 1518.71560669 C-142.06036219 1517.76668284 -142.06074971 1516.81775899 -142.06114897 1515.84007987 C-142.06274884 1511.97504596 -142.06439497 1508.11001209 -142.06609979 1504.24497823 C-142.08195569 1468.27236441 -142.08304926 1432.29976423 -142.07465744 1396.32714844 C-142.07440905 1395.26189534 -142.07416067 1394.19664224 -142.07390475 1393.09910874 C-142.07365597 1392.03214605 -142.07340718 1390.96518337 -142.07315085 1389.86588848 C-142.06557973 1357.353299 -142.06362785 1324.84071517 -142.06721878 1292.328125 C-142.06745122 1290.15048373 -142.06768269 1287.97284246 -142.06791319 1285.79520118 C-142.0688446 1277.04404582 -142.0698006 1268.29289047 -142.07079248 1259.54173511 C-142.07354343 1235.07901161 -142.07525529 1210.61628809 -142.07615089 1186.15356445 C-142.0762123 1184.48263737 -142.0762123 1184.48263737 -142.07627495 1182.77795418 C-142.07750268 1147.28548096 -142.07412262 1111.79300971 -142.06760216 1076.30053711 C-142.06739141 1075.14946157 -142.06718066 1073.99838603 -142.06696353 1072.81242941 C-142.06352873 1054.12000158 -142.05987032 1035.4275738 -142.05619301 1016.73514602 C-142.04162413 942.59995518 -142.04230034 868.46478061 -142.05688477 794.32958984 C-142.06054837 775.64656577 -142.06418154 756.9635417 -142.06760216 738.28051758 C-142.0678135 737.13011773 -142.06802485 735.97971787 -142.0682426 734.79445742 C-142.07471166 699.33880143 -142.07745388 663.8831468 -142.07615089 628.42749023 C-142.07611014 627.31435804 -142.07606939 626.20122584 -142.0760274 625.05436237 C-142.07508994 600.61876432 -142.07318898 576.18316641 -142.07041939 551.7475685 C-142.06943197 543.00426181 -142.06849273 534.26095511 -142.06756725 525.51764841 C-142.06733509 523.34256449 -142.0670989 521.16748056 -142.06685866 518.99239664 C-142.06327864 486.48891069 -142.06632576 453.9854311 -142.07390475 421.48194595 C-142.07415314 420.41669285 -142.07440153 419.35143975 -142.07465744 418.25390625 C-142.07490549 417.19062042 -142.07515353 416.12733459 -142.0754091 415.03182797 C-142.08368532 379.16246843 -142.08063677 343.29312525 -142.06481521 307.42376804 C-142.06315817 303.57099471 -142.06154805 299.71822136 -142.05997467 295.865448 C-142.05958405 294.9199194 -142.05919343 293.97439081 -142.05879097 293.00020983 C-142.05287688 278.03653891 -142.05699024 263.07288836 -142.06528169 248.10921928 C-142.07322315 233.39090433 -142.0704216 218.6726237 -142.05623942 203.9543131 C-142.04824515 195.3291743 -142.04838026 186.70412966 -142.06068422 178.0789954 C-142.06804092 172.34338038 -142.06443014 166.60783833 -142.05208365 160.87223208 C-142.04539576 157.62565125 -142.04486679 154.37929208 -142.05453321 151.13271344 C-142.10569294 132.63361305 -141.25243883 114.91949163 -135.10327148 97.29052734 C-134.76102539 96.28997314 -134.4187793 95.28941895 -134.06616211 94.25854492 C-129.05554121 80.15328853 -122.11973183 66.93290444 -112.66577148 55.29052734 C-111.84592773 54.25798828 -111.02608398 53.22544922 -110.18139648 52.16162109 C-83.03681378 18.58753323 -43.06821527 -0.03428188 0 0 Z " fill="#854DFD" transform="translate(141.665771484375,-0.29052734375)"/>
</svg>
