<svg id="OBJECT" xmlns="http://www.w3.org/2000/svg" xmlns:xlink="http://www.w3.org/1999/xlink" viewBox="0 0 32 32"><defs><style>.cls-1{fill:url(#linear-gradient);}.cls-2{fill:url(#linear-gradient-3);}</style><linearGradient id="linear-gradient" x1="-0.13" y1="16" x2="31.49" y2="16" gradientUnits="userSpaceOnUse"><stop offset="0" stop-color="#7738c8"/><stop offset="1" stop-color="#461d93"/></linearGradient><linearGradient id="linear-gradient-3" x1="-0.13" y1="10" x2="31.49" y2="10" xlink:href="#linear-gradient"/></defs><rect class="cls-1" x="23.5" y="15" width="2.5" height="2"/><path class="cls-1" d="M18,17.5v9a2.5,2.5,0,0,1-5,0V19h1a1,1,0,0,0,1-1V15.3l1.83-2.75A1,1,0,0,0,17,12V8h1V6H15.5V1h-2V6h-3V1h-2V6H6V8H7v4a1,1,0,0,0,.17.55L9,15.3V18a1,1,0,0,0,1,1h1v7.5a4.5,4.5,0,0,0,9,0v-9a.5.5,0,0,1,.5-.5H22V15H20.5A2.5,2.5,0,0,0,18,17.5ZM11,17V16h2v1ZM9,11.7V8h6v3.7L13.46,14H10.54Z"/><rect class="cls-2" x="10.5" y="9" width="3" height="2"/></svg>