<svg id="OBJECT" xmlns="http://www.w3.org/2000/svg" xmlns:xlink="http://www.w3.org/1999/xlink" viewBox="0 0 32 32"><defs><style>.cls-1{fill:url(#linear-gradient);}.cls-2{fill:url(#linear-gradient-3);}.cls-3{fill:url(#linear-gradient-5);}</style><linearGradient id="linear-gradient" x1="-0.21" y1="16" x2="31.17" y2="16" gradientUnits="userSpaceOnUse"><stop offset="0" stop-color="#7738c8"/><stop offset="1" stop-color="#461d93"/></linearGradient><linearGradient id="linear-gradient-3" x1="-0.21" y1="6" x2="31.17" y2="6" xlink:href="#linear-gradient"/><linearGradient id="linear-gradient-5" x1="-0.21" y1="26" x2="31.17" y2="26" xlink:href="#linear-gradient"/></defs><path class="cls-1" d="M27,1H5A4,4,0,0,0,1,5V27a4,4,0,0,0,4,4H27a4,4,0,0,0,4-4V5A4,4,0,0,0,27,1Zm2,26a2,2,0,0,1-2,2H5a2,2,0,0,1-2-2V5A2,2,0,0,1,5,3H27a2,2,0,0,1,2,2Z"/><path class="cls-1" d="M25,19.85v-7.7a1,1,0,0,0-.1-.44A10,10,0,0,0,20.29,7.1a1,1,0,0,0-.44-.1h-7.7a1,1,0,0,0-.44.1A10,10,0,0,0,7.1,11.71a1,1,0,0,0-.1.44v7.7a1,1,0,0,0,.1.44,10,10,0,0,0,4.61,4.61,1,1,0,0,0,.44.1h7.7a1,1,0,0,0,.44-.1,10,10,0,0,0,4.61-4.61A1,1,0,0,0,25,19.85Zm-2-.23A8,8,0,0,1,19.62,23H12.38A8,8,0,0,1,9,19.62V12.38A8,8,0,0,1,12.38,9h7.24A8,8,0,0,1,23,12.38Z"/><rect class="cls-2" x="5" y="5" width="2.5" height="2"/><rect class="cls-2" x="24.5" y="5" width="2.5" height="2"/><rect class="cls-3" x="5" y="25" width="2.5" height="2"/><rect class="cls-3" x="24.5" y="25" width="2.5" height="2"/><rect class="cls-1" x="12" y="13.5" width="2" height="5"/><rect class="cls-1" x="18" y="13.5" width="2" height="5"/></svg>